<?xml version="1.0" encoding="utf-8"?>
<!-- Generator: Adobe Illustrator 25.3.1, SVG Export Plug-In . SVG Version: 6.00 Build 0)  -->
<svg version="1.1" xmlns="http://www.w3.org/2000/svg" xmlns:xlink="http://www.w3.org/1999/xlink" x="0px" y="0px"
	 viewBox="0 0 200 200" style="enable-background:new 0 0 200 200;" xml:space="preserve">
<style type="text/css">
	.st0{display:none;}
	.st1{display:inline;fill:#FFFFFF;}
	.st2{fill:#FFFFFF;}
</style>
<g id="Layer_1" class="st0">
	<path class="st1" d="M154.2,159.9H46.7c-7.1,0-12.9-6-12.9-13.3v-11.9c0-3.5,2.8-6.4,6.2-6.4c3.4,0,6.2,2.9,6.2,6.4v11.9
		c0,0.3,0.2,0.5,0.5,0.5h107.5c0.3,0,0.5-0.2,0.5-0.5v-16.2c0-3.5,2.8-6.4,6.2-6.4s6.2,2.9,6.2,6.4v16.2
		C167.1,153.9,161.3,159.9,154.2,159.9L154.2,159.9z M117,60.8H83.1c-3.4,0-6.2-2.9-6.2-6.4c0-3.5,2.8-6.4,6.2-6.4H117
		c3.4,0,6.2,2.9,6.2,6.4C123.2,57.9,120.5,60.8,117,60.8z"/>
	<path class="st1" d="M158.8,181.3h-95c-12.6,0-13.2-9.2-13.2-11c0-3.5,2.8-6.4,6.2-6.4c2.8,0,5.2,1.9,5.9,4.6c0.3,0,0.6,0,1.1,0h95
		c13.1,0,17.4-11.5,17.4-17.1v-20.9c0-3.5,2.8-6.4,6.2-6.4s6.2,2.9,6.2,6.4v20.9C188.6,163.5,179.2,181.3,158.8,181.3z M40.3,65.6
		c-1.2,0-2.5-0.4-3.6-1.2c-2.8-2.1-3.4-6.1-1.5-8.9l22.3-32.3c1.1-1.7,3-2.7,4.9-2.7c2,0,3.8,0.9,5,2.5L87.7,50
		c2.1,2.8,1.6,6.8-1.1,9s-6.6,1.6-8.7-1.2L62.8,37.6L45.3,62.9C44.1,64.6,42.2,65.6,40.3,65.6z M160.9,64.5c-1.9,0-3.8-0.9-5-2.6
		l-18.5-25.6l-15.6,21.4c-2.1,2.8-6,3.4-8.7,1.3c-2.7-2.1-3.3-6.1-1.2-9l20.6-28.3c1.2-1.6,3-2.6,5-2.6h0c2,0,3.8,1,5,2.6l23.4,32.5
		c2,2.8,1.5,6.9-1.3,9C163.5,64.1,162.2,64.5,160.9,64.5L160.9,64.5z M171.7,120.6H30.9c-8.9,0-16.1-7.5-16.1-16.7V85.1
		c0-9.2,7.2-16.7,16.1-16.7h140.8c8.9,0,16.1,7.5,16.1,16.7v18.8C187.8,113.1,180.6,120.6,171.7,120.6L171.7,120.6z M30.9,81.3
		c-2,0-3.7,1.8-3.7,3.8v18.8c0,2.1,1.7,3.8,3.7,3.8h140.8c2,0,3.7-1.8,3.7-3.8V85.1c0-2.1-1.7-3.8-3.7-3.8
		C171.7,81.3,30.9,81.3,30.9,81.3z"/>
	<path class="st1" d="M159.2,100.9H40c-3.4,0-6.2-2.9-6.2-6.4s2.8-6.4,6.2-6.4h119.2c3.4,0,6.2,2.9,6.2,6.4S162.7,100.9,159.2,100.9
		L159.2,100.9z"/>
</g>
<g id="Layer_2">
	<path class="st2" d="M106.9,67.4c0.1-1.7,1.6-3,3.3-3c15.9,0.8,31.5-4.4,43.7-14.8c10.5-8.9,23.7-14.1,37.4-14.8
		c1.7-0.1,3-1.5,3-3.1v-6.2c0-1.7-1.4-3.1-3.1-3.1c0,0-0.1,0-0.1,0c-15.7,0.7-30.7,6.3-43,15.9c-11.8,9.3-26.6,14-41.6,13.3
		c-11.7-0.6-23.5,0.6-34.9,3.5c-1.3,0.3-2.6-0.2-3.3-1.2C54.8,35.1,33.5,23.4,10.3,22.4c-1.7-0.1-3.2,1.3-3.3,3c0,0,0,0.1,0,0.1
		v105.8c0,3.7,1.3,7.4,3.8,10.2c42.8,49.6,117.8,55.1,167.4,12.2c4.4-3.8,8.4-7.9,12.2-12.2c2.4-2.8,3.8-6.5,3.8-10.2V98.3
		c0-0.7-0.2-1.4-0.7-1.9c-2-2.6-4.2-5-6.4-7.4c-1.2-1.3-3.2-1.3-4.4-0.1c-0.6,0.6-1,1.4-1,2.3v26c0,11.2-5,21.8-13.7,28.9
		c-14,11.5-30.7,19.3-48.6,22.5c-4,0.7-8.2-0.6-11-3.5c-4.9-4.9-4.9-12.8,0-17.6l3.2-3.2c1.2-1.2,1.2-3.2,0-4.4
		c-0.5-0.5-1-0.8-1.7-0.9c-1.7,0-3.1-1.4-3.1-3.1V67.6C106.9,67.5,106.9,67.4,106.9,67.4z M19.6,40.3c0-0.3,0-0.6,0.1-0.8
		c0.5-1.7,2.2-2.6,3.8-2.2c12,3.3,22.7,10,30.8,19.5c0.2,0.2,0.4,0.5,0.5,0.8c0.7,1.6,0,3.4-1.6,4.1c-10.3,4.5-19.9,10.4-28.6,17.6
		c-0.6,0.5-1.3,0.7-2,0.7c-1.7,0-3.1-1.4-3.1-3.1V40.3z M96.3,158.7c-1.2,6.8-7.7,11.3-14.5,10.1c-17.8-3.2-34.6-11-48.6-22.5
		c-1.9-1.5-3.6-3.3-5.1-5.1c-13.1-16-10.8-39.6,5.1-52.7C49.7,74.9,69.8,66.6,91,64.7c0.1,0,0.2,0,0.3,0c1.7,0,3.1,1.4,3.1,3.1v68.3
		c0,1.6-1.2,3-2.8,3.1c-1.7,0.2-3,1.7-2.8,3.4c0.1,0.7,0.4,1.4,0.9,1.9l3.2,3.2C95.7,150.5,97,154.7,96.3,158.7z"/>
	<g id="LWPOLYLINE_14_">
		<path class="st2" d="M84.9,120.9c-0.2,1.6-1.5,2.7-3.1,2.7H64.6c-0.4,0-0.8,0.2-1.1,0.4c-3.6,3.6-9.5,3.6-13.1,0
			c-3.7-3.6-3.8-9.5-0.1-13.2c3.6-3.7,9.5-3.8,13.2-0.1c0.3,0.3,0.7,0.4,1.1,0.4h4c0.9,0,1.6-0.7,1.6-1.6c0-0.3-0.1-0.6-0.3-0.9
			c-4.8-7.2-14.5-9.1-21.6-4.3S39.2,118.9,44,126c2.9,4.3,7.8,6.9,13,6.9h20.2c0.4,0,0.7,0.1,1,0.4c0.7,0.6,0.7,1.5,0.2,2.2
			c-6.1,7.2-15.5,10.9-24.9,9.7c-15.4-1.9-26.3-16-24.3-31.4s16-26.3,31.4-24.3C75.9,91.4,86.8,105.5,84.9,120.9z"/>
	</g>
	<g id="LWPOLYLINE_13_">
		<path class="st2" d="M170,59.2c-0.5-0.3-0.8-0.7-1.1-1.1c-0.8-1.5-0.3-3.4,1.2-4.2c6.4-3.5,13.5-5.6,20.7-6.1c0.1,0,0.1,0,0.2,0
			c1.7,0,3.1,1.4,3.1,3.1v20.4c0,0.8-0.3,1.5-0.8,2.1c-1.2,1.3-3.1,1.4-4.4,0.2C183.1,68.2,176.8,63.4,170,59.2z"/>
	</g>
	<path class="st2" d="M144.3,89.3c-15.5,0-28.1,12.6-28.1,28.1s12.6,28.1,28.1,28.1s28.1-12.6,28.1-28.1S159.8,89.3,144.3,89.3z
		 M144.3,133c-8.6,0-15.6-7-15.6-15.6s7-15.6,15.6-15.6s15.6,7,15.6,15.6S153,133,144.3,133z"/>
	<g id="CIRCLE_6_">
		<path class="st2" d="M135,117.4c0-5.2,4.2-9.4,9.4-9.4s9.4,4.2,9.4,9.4c0,5.2-4.2,9.4-9.4,9.4S135,122.5,135,117.4L135,117.4z"/>
	</g>
</g>
</svg>
