<?xml version="1.0" standalone="no"?><!DOCTYPE svg PUBLIC "-//W3C//DTD SVG 1.1//EN" "http://www.w3.org/Graphics/SVG/1.1/DTD/svg11.dtd"><svg t="1676357638599" class="icon" viewBox="0 0 1024 1024" version="1.1" xmlns="http://www.w3.org/2000/svg" p-id="2716" xmlns:xlink="http://www.w3.org/1999/xlink" width="200" height="200"><path d="M789.47 818.86h-550.2c-36.48 0-66.15-30.64-66.15-68.3v-60.82c0-18.13 14.23-32.83 31.79-32.83s31.79 14.7 31.79 32.83v60.82c0 1.38 1.22 2.65 2.56 2.65h550.2c1.34 0 2.56-1.26 2.56-2.65v-82.71c0-18.13 14.23-32.83 31.79-32.83s31.79 14.7 31.79 32.83v82.71c0.02 37.66-29.66 68.3-66.13 68.3zM599.15 311.11h-173.8c-17.56 0-31.79-14.7-31.79-32.83s14.23-32.83 31.79-32.83h173.8c17.56 0 31.79 14.7 31.79 32.83s-14.23 32.83-31.79 32.83z" p-id="2717" fill="#ffffff"></path><path d="M813.22 928.29h-486.2c-64.57 0-67.84-47.03-67.84-56.46 0-18.13 14.23-32.83 31.79-32.83 14.38 0 26.53 9.86 30.46 23.39 1.47 0.15 3.32 0.25 5.58 0.25h486.2c67.27 0 89.03-58.98 89.03-87.54V667.85c0-18.13 14.23-32.83 31.79-32.83s31.79 14.7 31.79 32.83V775.1c0.01 61.78-48.49 153.19-152.6 153.19zM206.22 335.62c-6.37 0-12.81-1.97-18.4-6.08-14.31-10.51-17.66-31-7.49-45.78L294.35 118.2c5.84-8.48 15.23-13.6 25.31-13.8 10.18-0.24 19.65 4.55 25.8 12.8l103.57 138.95c10.71 14.37 8.11 34.98-5.8 46.04-13.91 11.06-33.88 8.38-44.59-5.99l-77.36-103.79-89.11 129.4c-6.21 9-16.01 13.81-25.95 13.81zM823.88 330.44c-9.7 0-19.27-4.57-25.52-13.21l-94.64-131.12-79.9 109.79c-10.55 14.5-30.49 17.41-44.52 6.53-14.04-10.89-16.87-31.47-6.32-45.97L678.4 111.6c6.01-8.25 15.42-13.11 25.42-13.11h0.06c10.02 0.02 19.44 4.92 25.43 13.21L849.34 278c10.49 14.54 7.59 35.11-6.49 45.94-5.7 4.38-12.36 6.5-18.97 6.5zM878.93 617.51H158.28c-45.58 0-82.66-38.29-82.66-85.36v-96.3c0-47.07 37.08-85.36 82.66-85.36h720.65c45.58 0 82.66 38.29 82.66 85.36v96.3c0 47.07-37.08 85.36-82.66 85.36zM158.28 416.16c-10.34 0-19.08 9.02-19.08 19.7v96.3c0 10.68 8.73 19.7 19.08 19.7h720.65c10.34 0 19.08-9.02 19.08-19.7v-96.3c0-10.68-8.73-19.7-19.08-19.7H158.28z" p-id="2718" fill="#ffffff"></path><path d="M815.34 516.84H204.92c-17.56 0-31.79-14.7-31.79-32.83s14.23-32.83 31.79-32.83h610.43c17.56 0 31.79 14.7 31.79 32.83s-14.24 32.83-31.8 32.83z" p-id="2719" fill="#ffffff"></path></svg>